<svg xmlns="http://www.w3.org/2000/svg" viewBox="0 0 24 24">
<path d="M12 0C5.37 0 0 5.37 0 12c0 5.3 3.438 9.8 8.205 11.385.6.113.82-.26.82-.577v-2.03c-3.338.724-4.043-1.61-4.043-1.61-.547-1.387-1.335-1.755-1.335-1.755-1.09-.745.084-.73.084-.73 1.205.086 1.84 1.238 1.84 1.238 1.07 1.833 2.807 1.303 3.49.997.107-.776.42-1.303.763-1.603-2.665-.305-5.467-1.334-5.467-5.93 0-1.312.468-2.384 1.236-3.224-.123-.304-.535-1.528.117-3.183 0 0 1.008-.323 3.3 1.23a11.47 11.47 0 0 1 3-.404 11.47 11.47 0 0 1 3 .404c2.29-1.553 3.297-1.23 3.297-1.23.653 1.655.242 2.879.12 3.183.77.84 1.235 1.912 1.235 3.224 0 4.61-2.807 5.624-5.48 5.922.43.37.814 1.1.814 2.22v3.293c0 .32.218.694.825.576C20.565 21.796 24 17.297 24 12c0-6.63-5.373-12-12-12z"/>
</svg>
