<svg xmlns="http://www.w3.org/2000/svg" viewBox="0 0 24 24">
<path d="M12 2.2c3.2 0 3.584.012 4.85.07 1.17.054 1.97.24 2.43.404.59.215 1.013.472 1.458.917.445.445.702.868.917 1.458.164.46.35 1.26.404 2.43.058 1.266.07 1.65.07 4.85s-.012 3.584-.07 4.85c-.054 1.17-.24 1.97-.404 2.43a3.674 3.674 0 0 1-.917 1.458 3.674 3.674 0 0 1-1.458.917c-.46.164-1.26.35-2.43.404-1.266.058-1.65.07-4.85.07s-3.584-.012-4.85-.07c-1.17-.054-1.97-.24-2.43-.404a3.674 3.674 0 0 1-1.458-.917 3.674 3.674 0 0 1-.917-1.458c-.164-.46-.35-1.26-.404-2.43C2.212 15.584 2.2 15.2 2.2 12s.012-3.584.07-4.85c.054-1.17.24-1.97.404-2.43A3.674 3.674 0 0 1 3.59 3.262a3.674 3.674 0 0 1 1.458-.917c.46-.164 1.26-.35 2.43-.404C8.416 1.712 8.8 1.7 12 1.7m0-1.7C8.736 0 8.332.013 7.052.072 5.77.13 4.78.332 4.02.61a5.374 5.374 0 0 0-1.94 1.26A5.374 5.374 0 0 0 .82 3.81C.542 4.57.34 5.56.282 6.842.224 8.122.21 8.526.21 12s.013 3.878.072 5.158c.058 1.282.26 2.272.538 3.032a5.374 5.374 0 0 0 1.26 1.94 5.374 5.374 0 0 0 1.94 1.26c.76.278 1.75.48 3.032.538 1.28.058 1.684.072 5.158.072s3.878-.013 5.158-.072c1.282-.058 2.272-.26 3.032-.538a5.374 5.374 0 0 0 1.94-1.26 5.374 5.374 0 0 0 1.26-1.94c.278-.76.48-1.75.538-3.032.058-1.28.072-1.684.072-5.158s-.013-3.878-.072-5.158c-.058-1.282-.26-2.272-.538-3.032a5.374 5.374 0 0 0-1.26-1.94A5.374 5.374 0 0 0 20.19.61c-.76-.278-1.75-.48-3.032-.538C15.878.013 15.474 0 12 0zM12 5.838a6.162 6.162 0 1 0 0 12.324 6.162 6.162 0 0 0 0-12.324zm0 10.162a3.999 3.999 0 1 1 0-7.998 3.999 3.999 0 0 1 0 7.998zm6.406-11.845a1.44 1.44 0 1 0 0 2.88 1.44 1.44 0 0 0 0-2.88z"></path>
</svg>
