<svg xmlns="http://www.w3.org/2000/svg" viewBox="0 0 24 24">
<path d="M24 4.557a9.83 9.83 0 0 1-2.828.775 4.932 4.932 0 0 0 2.165-2.724 9.865 9.865 0 0 1-3.127 1.195A4.916 4.916 0 0 0 16.616 3c-2.717 0-4.92 2.204-4.92 4.92 0 .386.044.762.127 1.124C7.728 8.834 4.1 6.868 1.67 3.894a4.93 4.93 0 0 0-.666 2.475c0 1.707.87 3.216 2.188 4.1a4.904 4.904 0 0 1-2.228-.616v.06c0 2.385 1.697 4.374 3.946 4.827a4.935 4.935 0 0 1-2.224.085c.627 1.956 2.444 3.379 4.6 3.421A9.867 9.867 0 0 1 0 19.54a13.92 13.92 0 0 0 7.548 2.212c9.057 0 14.01-7.513 14.01-14.01 0-.213-.005-.425-.014-.636A10.012 10.012 0 0 0 24 4.557z"/>
</svg>
